<?xml version="1.0" standalone="no"?>
<!DOCTYPE svg PUBLIC "-//W3C//DTD SVG 20010904//EN"
 "http://www.w3.org/TR/2001/REC-SVG-20010904/DTD/svg10.dtd">
<svg version="1.0" xmlns="http://www.w3.org/2000/svg"
 width="90.000000pt" height="90.000000pt" viewBox="0 0 90.000000 90.000000"
 preserveAspectRatio="xMidYMid meet">
<metadata>
Created by potrace 1.14, written by Peter Selinger 2001-2017
</metadata>
<g transform="translate(0.000000,90.000000) scale(0.100000,-0.100000)"
fill="#000000" stroke="none">
<path d="M375 790 c-61 -20 -165 -98 -165 -125 0 -7 19 -20 43 -30 85 -34 107
-47 107 -65 0 -32 -34 -32 -105 0 -78 35 -82 36 -89 13 -22 -79 -22 -77 51
-108 90 -37 113 -62 113 -126 l0 -49 -114 0 c-95 0 -115 -3 -120 -16 -3 -9 -6
-60 -6 -114 0 -119 1 -120 105 -95 55 14 102 44 143 90 26 29 43 42 47 34 12
-19 88 -49 125 -49 48 0 114 32 141 69 12 16 39 37 59 45 30 12 41 25 60 68
13 29 28 85 33 125 9 61 8 81 -7 129 -56 177 -234 263 -421 204z m175 -420
c11 -11 20 -29 20 -40 0 -26 -34 -60 -60 -60 -26 0 -60 34 -60 60 0 11 9 29
20 40 11 11 29 20 40 20 11 0 29 -9 40 -20z m-252 -162 c-26 -33 -73 -62 -120
-73 l-28 -7 0 56 0 56 86 0 87 0 -25 -32z"/>
</g>
</svg>
